<?xml version="1.0" standalone="no"?>
<!DOCTYPE svg PUBLIC "-//W3C//DTD SVG 20010904//EN"
 "http://www.w3.org/TR/2001/REC-SVG-20010904/DTD/svg10.dtd">
<svg version="1.0" xmlns="http://www.w3.org/2000/svg"
 width="700.000000pt" height="700.000000pt" viewBox="0 0 700.000000 700.000000"
 preserveAspectRatio="xMidYMid meet">
<metadata>
Created by potrace 1.11, written by Peter Selinger 2001-2013
</metadata>
<g transform="translate(0.000000,700.000000) scale(0.100000,-0.100000)"
fill="#000000" stroke="none">
<path d="M909 6995 c-3 -2 -25 -7 -49 -10 -66 -8 -203 -52 -279 -89 -305 -148
-524 -449 -567 -777 -7 -55 -13 -2311 -6 -2340 3 -15 9 -16 65 -3 197 46 303
116 384 255 26 45 59 147 73 224 5 33 13 71 16 85 3 14 7 207 9 430 5 467 13
876 19 905 2 11 7 47 11 80 18 159 77 353 136 449 135 223 398 334 879 371 42
3 178 8 303 10 l227 4 1 -52 c5 -165 3 -390 -2 -406 -6 -16 -25 -18 -191 -20
-214 -2 -265 -6 -373 -27 -262 -52 -348 -172 -381 -534 -3 -36 -7 -321 -9
-635 -2 -313 -6 -588 -9 -610 -10 -65 -17 -113 -20 -142 -10 -77 -50 -207 -87
-282 -32 -64 -59 -102 -113 -155 -99 -98 -170 -137 -386 -212 -9 -3 13 -15 50
-28 259 -92 393 -207 474 -407 15 -35 28 -73 30 -84 2 -11 11 -49 19 -85 8
-36 18 -92 22 -125 4 -33 9 -76 11 -95 3 -19 6 -282 8 -585 2 -444 10 -720 21
-765 1 -3 5 -25 9 -50 27 -157 101 -272 203 -315 133 -57 177 -63 488 -71 127
-3 231 -7 233 -9 2 -2 4 -107 5 -234 l2 -232 -24 -6 c-24 -6 -518 4 -576 12
-16 2 -52 7 -80 10 -415 53 -635 167 -756 390 -35 65 -91 238 -105 325 -2 14
-6 34 -9 45 -2 11 -7 47 -10 80 -3 33 -8 78 -11 100 -2 22 -6 302 -8 623 -3
320 -7 604 -11 630 -21 168 -68 315 -124 392 -85 117 -199 180 -394 214 l-28
5 4 -1182 c2 -650 7 -1198 11 -1217 72 -336 258 -587 545 -733 102 -53 187
-81 296 -101 117 -21 5157 -22 5282 -1 381 63 688 326 809 692 18 57 37 120
40 140 4 21 9 570 11 1220 l4 1182 -21 -4 c-11 -2 -48 -11 -83 -20 -34 -9 -69
-18 -78 -20 -36 -7 -117 -55 -163 -96 -66 -58 -111 -131 -145 -237 -55 -168
-59 -222 -62 -932 -2 -519 -10 -664 -43 -815 -67 -304 -173 -460 -384 -565
-60 -29 -239 -85 -307 -95 -23 -3 -52 -7 -65 -10 -42 -8 -104 -17 -140 -20
-217 -20 -608 -26 -618 -11 -9 15 -10 443 -1 457 4 8 69 12 200 14 175 3 278
9 334 22 11 2 34 7 50 10 63 11 169 60 212 97 66 58 101 139 138 316 13 63 18
261 20 745 2 308 6 588 9 623 8 83 40 241 66 322 71 218 230 366 483 450 38
12 67 24 65 26 -2 1 -44 17 -93 34 -101 35 -189 82 -252 132 -79 63 -160 181
-202 293 -17 46 -49 193 -57 260 -3 33 -9 74 -11 90 -2 17 -6 278 -8 580 -4
703 -8 761 -57 914 -31 97 -53 131 -115 182 -48 40 -180 86 -303 105 -19 3
-134 8 -255 11 -121 3 -222 7 -225 10 -2 2 -5 105 -5 229 -1 195 1 226 14 233
16 8 229 6 453 -3 122 -5 294 -26 388 -47 25 -6 54 -12 64 -15 48 -9 157 -48
221 -79 96 -45 162 -96 217 -169 102 -134 153 -291 194 -596 3 -25 7 -288 9
-585 4 -598 8 -702 31 -814 59 -286 164 -409 409 -479 39 -11 80 -22 93 -25
l23 -5 -4 1176 c-1 648 -6 1188 -10 1202 -4 14 -9 39 -13 55 -12 63 -48 163
-86 240 -145 290 -427 496 -753 551 -65 11 -560 13 -2651 13 -1414 1 -2573 -1
-2575 -4z m3884 -442 c-4 -10 -43 -90 -86 -178 -74 -148 -103 -210 -162 -340
-59 -130 -75 -165 -103 -225 -16 -36 -62 -141 -101 -235 -40 -93 -79 -183 -86
-200 -42 -94 -192 -487 -255 -670 -22 -66 -45 -129 -50 -140 -5 -11 -34 -101
-65 -200 -59 -192 -74 -228 -108 -266 -24 -27 -132 -153 -156 -183 -9 -11 13
3 49 31 36 28 76 56 88 62 21 11 23 11 18 -6 -17 -57 -191 -744 -201 -796 -44
-216 -146 -513 -233 -677 -134 -252 -365 -513 -674 -761 -81 -66 -95 -88 -103
-164 -4 -33 -9 -68 -10 -77 -9 -47 -19 -182 -18 -249 1 -89 16 -144 51 -181
16 -18 22 -33 18 -45 -15 -38 -347 -611 -361 -623 -26 -22 -33 1 -22 75 8 52
66 365 72 385 2 8 7 33 10 55 7 50 -1 13 80 414 l67 334 -41 111 c-37 99 -59
181 -75 270 -20 111 -26 386 -12 516 9 83 36 252 43 263 4 7 134 -98 141 -115
2 -5 8 -8 12 -8 5 0 -22 46 -60 102 -51 77 -67 109 -63 128 7 45 24 103 65
230 159 491 444 1052 811 1595 85 126 258 375 260 375 1 0 2 -50 2 -110 0 -60
3 -110 8 -110 4 0 7 8 8 18 0 9 2 24 4 32 1 8 11 65 20 125 10 61 25 123 33
139 37 75 431 552 651 790 116 126 521 526 532 526 4 0 5 -8 2 -17z"/>
</g>
</svg>
